<?xml version="1.0" encoding="UTF-8" standalone="no"?>
<svg
   xmlns:dc="http://purl.org/dc/elements/1.1/"
   xmlns:cc="http://creativecommons.org/ns#"
   xmlns:rdf="http://www.w3.org/1999/02/22-rdf-syntax-ns#"
   xmlns:svg="http://www.w3.org/2000/svg"
   xmlns="http://www.w3.org/2000/svg"
   xmlns:sodipodi="http://sodipodi.sourceforge.net/DTD/sodipodi-0.dtd"
   xmlns:inkscape="http://www.inkscape.org/namespaces/inkscape"
   height="184.5"
   width="184.5"
   version="1.1"
   id="svg4136"
   inkscape:version="0.91 r13725"
   sodipodi:docname="Blackflag-logo.svg">
  <metadata
     id="metadata4144">
    <rdf:RDF>
      <cc:Work
         rdf:about="">
        <dc:format>image/svg+xml</dc:format>
        <dc:type
           rdf:resource="http://purl.org/dc/dcmitype/StillImage" />
        <dc:title></dc:title>
      </cc:Work>
    </rdf:RDF>
  </metadata>
  <defs
     id="defs4142" />
  <sodipodi:namedview
     pagecolor="#ffffff"
     bordercolor="#666666"
     borderopacity="1"
     objecttolerance="10"
     gridtolerance="10"
     guidetolerance="10"
     inkscape:pageopacity="0"
     inkscape:pageshadow="2"
     inkscape:window-width="1890"
     inkscape:window-height="1109"
     id="namedview4140"
     showgrid="false"
     fit-margin-top="0"
     fit-margin-left="0"
     fit-margin-right="0"
     fit-margin-bottom="0"
     inkscape:zoom="3.8614385"
     inkscape:cx="80.307026"
     inkscape:cy="104.34849"
     inkscape:window-x="3"
     inkscape:window-y="6"
     inkscape:window-maximized="0"
     inkscape:current-layer="layer2" />
  <g
     inkscape:groupmode="layer"
     id="layer2"
     inkscape:label="SVG"
     style="display:inline"
     transform="translate(8.1687393,6.9007959)">
    <path
       inkscape:connector-curvature="0"
       style="fill:#231f20"
       d="m 14.036311,26.389446 0,-16.8075005 c 0,-0.44375 -0.008,-0.8674997 -0.022,-1.2699997 -0.0127,-0.4012 -0.0752,-0.78245 -0.186,-1.1437 -0.11087,-0.41625 -0.29888,-0.8325 -0.56212,-1.2475 -0.26313,-0.41625 -0.63126,-0.87375 -1.10251,-1.37375 l 12.024,0 c 2.63576,0 4.70063,0.645 6.19913,1.935 1.49713,1.29 2.2735,2.6974997 2.32963,4.2224992 l 0,0.0625 0,0.0625 c 0,1.552501 -0.374,2.697501 -1.123,3.432501 -0.7492,0.7362 -1.5674,1.2687 -2.4556,1.6012 -0.0551,0.0287 -0.1035,0.05 -0.1445,0.0637 -0.042,0.0125 -0.0766,0.02 -0.105,0.02 2.55225,0.9425 4.09175,2.09375 4.61913,3.4525 0.52587,1.36 0.78912,2.8575 0.78912,4.49375 -0.10987,2.58 -1.16362,4.4375 -3.16062,5.575 -1.99813,1.1375 -4.2715,1.70625 -6.82375,1.70625 -0.083,0 -0.1665,-0.008 -0.25,-0.0213 -0.0825,-0.0138 -0.166,-0.02 -0.24913,-0.02 -0.0546,0 -0.104,-0.007 -0.14637,-0.0212 -0.0415,-0.0138 -0.0889,-0.0213 -0.14513,-0.0213 l -0.145,0 -0.1455,0 -11.3999,0 c 0.80374,-0.24875 1.3525,-0.7275 1.64312,-1.43625 0.29188,-0.705 0.46475,-1.4625 0.5195,-2.26625 0.0282,-0.16625 0.0425,-0.33375 0.0425,-0.5 l 0,-0.49875 z m 93.997999,134.975994 0.01,-0.006 4.8675,-14.6398 c 0.055,-0.22212 0.125,-0.44375 0.2075,-0.665 0.0838,-0.22312 0.16625,-0.44487 0.25,-0.667 0.19375,-0.52637 0.37375,-1.0395 0.54,-1.539 0.1675,-0.49912 0.25,-0.95662 0.25,-1.37312 0,-0.167 -0.0138,-0.32613 -0.0413,-0.478 -0.0275,-0.15338 -0.07,-0.3125 -0.125,-0.478 -0.11125,-0.30613 -0.305,-0.61725 -0.58375,-0.937 -0.27625,-0.31888 -0.65125,-0.6035 -1.1225,-0.85263 l 10.4425,0 8.8625,22.7989 c 0.11,0.61087 0.395,1.17962 0.85375,1.7065 0.4575,0.52687 0.94875,0.99812 1.47625,1.41412 0.13875,0.11125 0.27,0.21488 0.39625,0.3115 0.12375,0.0976 0.25625,0.20213 0.395,0.3125 l -13.2312,0 c 0.0275,0 0.0475,-0.007 0.0625,-0.021 0.015,-0.0131 0.035,-0.0346 0.0625,-0.062 0.38875,-0.27787 0.74875,-0.56787 1.08125,-0.8735 0.3325,-0.30525 0.56875,-0.6245 0.7075,-0.95712 0.0562,-0.083 0.09,-0.167 0.10375,-0.25 0.015,-0.0825 0.0213,-0.166 0.0213,-0.2495 0,-0.0272 -0.006,-0.0756 -0.0213,-0.145 -0.0138,-0.0702 -0.0213,-0.13225 -0.0213,-0.187 -0.0263,-0.0845 -0.0475,-0.15963 -0.0625,-0.2295 -0.0138,-0.0694 -0.0337,-0.11763 -0.0612,-0.1455 l -1.58125,-4.74363 -7.905,0 -1.58125,4.11913 c 0,0.0288 -0.008,0.0766 -0.02,0.1455 -0.015,0.0699 -0.0213,0.13187 -0.0213,0.188 l 0,0.0205 0,0.021 c 0,0.0556 -0.006,0.11762 -0.02,0.187 -0.015,0.0699 -0.0213,0.11812 -0.0213,0.146 0,0.11037 0.006,0.21537 0.0213,0.312 0.0138,0.0962 0.0337,0.1875 0.0613,0.27 0.0825,0.44437 0.2925,0.88037 0.625,1.31112 0.3325,0.43013 0.74875,0.8115 1.2475,1.1435 l -24.488199,0 c 0.80412,-0.63775 1.31787,-1.29687 1.5395,-1.97612 0.22125,-0.67963 0.332,-1.49113 0.332,-2.4335 l 0,-16.7666 c 0,-1.55325 -0.20063,-2.65675 -0.6025,-3.30762 -0.40288,-0.65138 -0.90775,-1.21388 -1.519,-1.6855 -0.0274,0 -0.0489,-0.006 -0.062,-0.0201 -0.0138,-0.0146 -0.0205,-0.021 -0.0205,-0.021 l 12.023399,0 c -0.94337,0.77588 -1.490749,1.66313 -1.643999,2.66213 -0.15187,0.9995 -0.22799,2.233 -0.22799,3.70262 l 0,15.4361 c 0.11024,0.0272 0.22799,0.0478 0.35299,0.062 0.125,0.0141 0.256379,0.0351 0.394999,0.0625 0.38863,0.0825 0.82613,0.15325 1.3105,0.208 0.48638,0.0561 0.97763,0.0835 1.47763,0.0835 0.19375,0 0.3945,-0.008 0.6035,-0.021 0.2075,-0.0138 0.42288,-0.02 0.6445,-0.02 1.082,-0.0835 2.094,-0.27788 3.03775,-0.5835 l 0.0238,-0.008 0.0138,-0.004 0.005,-0.002 0.007,-0.002 10e-4,-5e-4 0.0238,-0.008 0.0113,-0.004 0.002,-0.002 0.0175,-0.006 0.006,-5e-4 0.0112,-0.005 0.025,-0.008 0,-0.001 0.0425,-0.0146 0.0162,-0.006 0.001,0 0.006,-0.002 0.005,-10e-4 0.0125,-0.005 0.0125,-0.004 0.035,-0.0136 0.0113,-0.005 0.007,-0.002 0.04,-0.0161 0.0225,-0.009 0.0113,-0.005 0.001,-8.7e-4 0.0337,-0.0138 0.0113,-0.004 0.001,-5e-4 0,-10e-4 0.0175,-0.007 0.002,-0.003 0.0125,-0.003 0.006,-0.002 0.005,-0.003 0.0225,-0.009 0.0113,-0.005 10e-4,0 0.01,-0.004 0.001,-5e-4 0.0638,-0.0277 0,-5e-4 0.0375,-0.0171 0.006,-0.003 0.01,-0.004 0.01,-0.005 0.0113,-0.006 0.001,0 0.009,-0.005 0.0113,-0.005 0.001,-0.001 0.015,-0.007 0.015,-0.007 0.01,-0.004 0.01,-0.006 0.001,0 z M 35.415411,26.681446 l 0,-16.7675005 c 0,-1.5524997 -0.20075,-2.6549997 -0.603,-3.3074997 -0.4023,-0.65125 -0.9087,-1.2125 -1.5191,-1.68375 -0.0272,0 -0.0478,-0.007 -0.062,-0.0212 -0.0141,-0.0138 -0.0215,-0.02 -0.0215,-0.02 l 12.024,0 c -0.94238,0.77625 -1.49075,1.6625 -1.64262,2.6625 -0.15326,0.9975 -0.22951,2.2324997 -0.22951,3.7024992 l 0,15.435001 c 0.11138,0.0275 0.22951,0.0487 0.35451,0.0625 0.1245,0.0137 0.25587,0.0362 0.3945,0.0625 0.38824,0.0825 0.82524,0.1525 1.31112,0.20875 0.48525,0.055 0.9775,0.0838 1.4765,0.0838 0.19338,0 0.396,-0.009 0.603,-0.0225 0.209,-0.0125 0.42237,-0.0212 0.64513,-0.0212 1.082,-0.0825 2.09412,-0.275 3.03699,-0.58125 l 0.0122,-0.004 0.0133,-0.004 0.0116,-0.005 0.007,-0.002 0.006,-0.002 0.0118,-0.005 0.0121,-0.002 0.0127,-0.004 10e-4,-0.001 0.002,-0.001 0.0166,-0.005 0.005,-10e-4 0.0127,-0.005 0.006,-10e-4 0.0143,-0.005 0.006,-0.003 0.0435,-0.015 0.002,0 0.0121,-0.006 0.007,-0.002 0.0518,-0.0188 0.0122,-0.004 0.0229,-0.01 0.0123,-0.004 10e-4,-0.001 0.0185,-0.006 0.002,-0.001 0.002,-0.001 0.009,-0.004 0.0118,-0.004 0.0118,-0.005 0.0118,-0.004 0.0108,-0.005 0.0112,-0.006 0.0224,-0.009 0.0118,-0.004 0.0118,-0.005 0.008,-0.002 0.002,-0.002 0.0107,-0.005 0.0116,-0.004 0.0118,-0.005 0.002,-0.002 0.038,-0.015 0.003,-0.002 0.01,-0.004 0.0118,-0.005 0.0107,-0.005 0.004,-0.001 0.006,-0.004 0.0116,-0.005 0.0107,-0.005 0.008,-0.004 10e-4,-0.001 0.0108,-0.004 0.022,-0.01 0.002,-0.002 0.007,-0.004 0.0112,-0.005 0.0108,-0.004 0.009,-0.005 10e-4,0 0.0108,-0.006 0.01,-0.004 0.0102,-0.005 0.004,-0.002 0.006,-0.004 4.86825,-14.642501 c 0.0546,-0.22125 0.1245,-0.44375 0.207,-0.66625 0.0835,-0.22125 0.1665,-0.44375 0.2505,-0.665 0.19388,-0.5262495 0.3735,-1.0399995 0.54051,-1.5387492 0.16649,-0.5 0.24899,-0.9575 0.24899,-1.37375 0,-0.16625 -0.0136,-0.32625 -0.041,-0.4775 -0.0274,-0.15375 -0.0689,-0.3125 -0.125,-0.48 -0.11087,-0.305 -0.30462,-0.61625 -0.5825,-0.935 -0.27687,-0.32 -0.65137,-0.60375 -1.123,-0.85375 l 10.4429,0 8.86175,22.8000002 c 0.11137,0.61 0.395,1.1775 0.853,1.705 0.4575,0.5275 0.94975,0.99875 1.47662,1.415 0.13863,0.11125 0.271,0.215 0.3955,0.3125 0.1245,0.0962 0.25688,0.20125 0.3955,0.31125 l -13.231,0 c 0.0289,0 0.0494,-0.006 0.0625,-0.02 0.0143,-0.0137 0.0348,-0.035 0.063,-0.0625 0.38775,-0.2775 0.7485,-0.56875 1.08163,-0.875 0.3325,-0.30375 0.56775,-0.6225 0.7075,-0.95625 0.0541,-0.0825 0.0897,-0.16625 0.103,-0.24875 0.0141,-0.0838 0.022,-0.1675 0.022,-0.25 0,-0.0288 -0.008,-0.0775 -0.022,-0.14625 -0.0132,-0.07 -0.02,-0.1325 -0.02,-0.1875 -0.0289,-0.0825 -0.0494,-0.15875 -0.0635,-0.2275 -0.0133,-0.07 -0.0337,-0.11875 -0.062,-0.14625 l -1.58013,-4.74375 -7.90475,0 -1.5815,4.12 c 0,0.0263 -0.007,0.075 -0.021,0.14625 -0.0133,0.0687 -0.021,0.13 -0.021,0.18625 l 0,0.0212 0,0.02 c 0,0.0563 -0.006,0.11875 -0.0205,0.18875 -0.0143,0.0687 -0.0205,0.11625 -0.0205,0.145 0,0.11125 0.006,0.21375 0.0205,0.31125 0.0141,0.0962 0.0351,0.1875 0.0625,0.27125 0.083,0.4425 0.2915,0.88 0.6245,1.31 0.3325,0.43 0.749,0.81125 1.247,1.14375 l -24.4849,0 c 0.80425,-0.6375 1.31687,-1.29625 1.53862,-1.97625 0.22213,-0.67875 0.3335,-1.49125 0.3335,-2.43375 z m 40.3667,-8.5287 c 0.1382,-5.6588 1.7681,-9.4438002 4.8877,-11.3576002 3.1206,-1.9137 6.5395,-2.8712 10.2554,-2.8712 l 0.687,0 c 0.23637,0 0.46387,0.0138 0.686,0.0413 0.80475,0.0275 1.59575,0.09 2.37162,0.1875 0.77688,0.0962 1.52537,0.20125 2.24613,0.3125 0.14012,0 0.26462,0.006 0.37549,0.02 0.11076,0.0138 0.22113,0.035 0.33251,0.0625 l 0,5.6587492 c -0.166,-0.11125 -0.3545,-0.2224995 -0.562,-0.3337495 -0.208,-0.11005 -0.4087,-0.22255 -0.6035,-0.3313 -0.7476,-0.38875 -1.6011,-0.74375 -2.5576,-1.0624997 -0.9571,-0.31875 -2.0459,-0.4775 -3.2661,-0.4775 l -0.2505,0 c -1.99613,0 -3.57713,0.9699997 -4.74225,2.9124992 -1.165,1.941251 -1.748,4.090001 -1.748,6.448751 l 0,0.27 0,0.27 c 0.11137,2.22 0.812,4.27875 2.102,6.17875 1.28962,1.9 3.2515,2.98875 5.88675,3.26625 l 0.187,0 0.2285,0 c 0.0553,0.0263 0.11775,0.0412 0.18799,0.0412 l 0.18613,0 c 0.44425,0 0.90225,-0.0275 1.373,-0.0837 0.47213,-0.0563 0.94338,-0.13875 1.415,-0.25 0.83213,-0.1925 1.65038,-0.42875 2.45513,-0.70625 0.80462,-0.2775 1.539,-0.56875 2.204619,-0.87375 0.22263,-0.11 0.4365,-0.22125 0.6455,-0.33375 0.2075,-0.11 0.40863,-0.22125 0.603,-0.3325 l -1.872119,5.99125 c -0.88813,0.16625 -1.8305,0.3125 -2.829,0.4375 -0.99863,0.125 -2.01075,0.22875 -3.03763,0.3125 -0.333,0 -0.65875,0.006 -0.97762,0.02 -0.31925,0.0138 -0.63075,0.02 -0.9365,0.02 l -0.27,0 -0.2705,0 c -3.6329,-0.0822 -7.0035,-1.046 -10.11,-2.891 -3.1064,-1.8437 -4.8681,-5.36 -5.2832,-10.5462 z M 102.65911,9.2902455 c 0,-0.9699997 -0.166,-1.7949997 -0.4995,-2.4737497 -0.333,-0.68 -0.90087,-1.32625 -1.706,-1.935 l 11.6922,0 c -0.14,0.11 -0.265,0.2075 -0.375,0.29 -0.11125,0.0838 -0.2225,0.18 -0.33375,0.29125 -0.389,0.33245 -0.679,0.70745 -0.874,1.1237 -0.194,0.41625 -0.29,0.9975 -0.29,1.7475 l 0,8.2375002 5.99,-7.9450002 c 0.194,-0.2225 0.333,-0.4525 0.415,-0.6875 0.0838,-0.23625 0.12625,-0.45125 0.12625,-0.645 0,-0.2225 -0.0688,-0.4575 -0.20875,-0.7075 -0.13875,-0.25 -0.31875,-0.49875 -0.54125,-0.74875 -0.13875,-0.1675 -0.2975,-0.32625 -0.4775,-0.4775 -0.18,-0.15375 -0.38125,-0.3125 -0.6025,-0.47875 l 10.7738,0 -9.19375,10.7338002 7.3225,11.0662 c 0.11125,0.195 0.22875,0.38875 0.35375,0.5825 0.125,0.19375 0.2425,0.38875 0.35375,0.5825 0.415,0.63875 0.85375,1.24875 1.31,1.83125 0.4575,0.5825 0.93625,1.05375 1.435,1.41375 l -5.99,0 c -1.1375,0 -2.10125,-0.0975 -2.8925,-0.29125 -0.79,-0.19375 -1.545,-0.6925 -2.2675,-1.4975 -0.19375,-0.2225 -0.395,-0.47125 -0.6025,-0.74875 -0.2075,-0.2775 -0.41,-0.5825 -0.6025,-0.915 l -4.70125,-7.905 0,7.61375 c 0,0.8875 0.18,1.635 0.54,2.24625 0.36,0.61 0.7625,1.08125 1.20625,1.415 0.0288,0.0275 0.0488,0.0488 0.0625,0.0625 0.0138,0.0138 0.035,0.02 0.0638,0.02 l -11.6922,0 c 0.55513,-0.2225 0.9985,-0.6175 1.3315,-1.185 0.3335,-0.57 0.56838,-1.15875 0.708,-1.76875 0.0551,-0.25 0.0962,-0.49875 0.124,-0.74875 0.0279,-0.25 0.042,-0.485 0.042,-0.7075 l 0,-17.3912005 z M 74.556611,144.76524 c 0,-1.249 -0.146,-2.28175 -0.4365,-3.10012 -0.292,-0.81788 -0.67287,-1.46288 -1.14462,-1.93413 l 8.77887,0 1.54,0 c 0.63775,0 1.30325,-0.0141 1.99613,-0.042 0.77737,0 1.5185,-0.0205 2.226,-0.0625 0.70812,-0.0405 1.22712,-0.1035 1.55962,-0.187 l 0,5.94925 c -0.0269,-0.0269 -0.0474,-0.0479 -0.0625,-0.0625 -0.0136,-0.0131 -0.0346,-0.0346 -0.062,-0.062 -0.0548,-0.0561 -0.1035,-0.1035 -0.146,-0.146 -0.0405,-0.041 -0.0899,-0.0899 -0.146,-0.146 -0.38725,-0.38725 -0.83062,-0.7265 -1.33012,-1.019 -0.4995,-0.2915 -1.289,-0.437 -2.372,-0.437 l -2.57913,0 0,6.65763 1.6645,0 c 0.47125,0 0.94338,-0.0136 1.41413,-0.042 0.47112,-0.0272 0.94337,-0.11075 1.4145,-0.2495 l 0,5.94975 c -0.083,-0.084 -0.166,-0.167 -0.2495,-0.25 -0.083,-0.083 -0.166,-0.18063 -0.2495,-0.2905 -0.22263,-0.25 -0.47163,-0.48638 -0.748,-0.7085 -0.27838,-0.22125 -0.59725,-0.3325 -0.957,-0.3325 l -2.28913,0 0,7.61425 c 0,0.27775 0.0351,0.582 0.1045,0.916 0.0689,0.3325 0.15913,0.664 0.2705,0.9975 0.19288,0.4995 0.44388,0.97175 0.748,1.41462 0.30525,0.44375 0.69388,0.80363 1.16613,1.0815 l -11.692,0 c 0,0 0.008,-0.007 0.021,-0.021 0.0143,-0.0131 0.0205,-0.0346 0.0205,-0.062 0.083,-0.11087 0.1665,-0.22162 0.2505,-0.3325 0.0825,-0.11137 0.16562,-0.22225 0.24862,-0.3325 0.25,-0.38925 0.48625,-0.85987 0.708,-1.41562 0.22113,-0.55363 0.3325,-1.30363 0.3325,-2.246 l 0,-17.0996 z m 56.905499,8.56975 c 0.16625,-4.71425 1.435,-8.09812 3.80625,-10.1514 2.37125,-2.05225 4.9725,-3.32763 7.80125,-3.82763 0.6375,-0.11125 1.275,-0.19425 1.91375,-0.249 0.6375,-0.0556 1.26125,-0.084 1.8725,-0.084 1.11,0 2.18375,0.0704 3.22375,0.2085 1.04,0.13875 1.9075,0.30525 2.6,0.4995 l 0,5.99125 c -0.49875,-0.4165 -1.025,-0.77687 -1.58,-1.0825 -0.55625,-0.30525 -1.11,-0.55375 -1.66375,-0.7485 -0.5,-0.19437 -1,-0.33262 -1.49875,-0.4165 -0.5,-0.0826 -0.985,-0.12412 -1.45625,-0.12412 -1.88625,0 -3.565,0.70025 -5.03375,2.10062 -1.47125,1.40138 -2.20625,3.3775 -2.20625,5.92875 0,0.0278 0.007,0.0556 0.0213,0.0835 0.0138,0.0283 0.0213,0.0551 0.0213,0.083 0,0.0282 0.007,0.0551 0.0213,0.084 0.0138,0.0269 0.02,0.0687 0.02,0.124 0,0.5825 0.0425,1.28225 0.125,2.1015 0.0825,0.81838 0.25,1.67 0.49875,2.55813 0.41625,1.49812 1.1175,2.878 2.1025,4.13962 0.98375,1.26225 2.43375,1.89313 4.3475,1.89313 0.165,0 0.34625,-0.0141 0.54,-0.0415 0.195,-0.0274 0.4025,-0.0689 0.625,-0.1245 l 0.0838,0 0.0825,0 c 0.055,-0.0274 0.12375,-0.0494 0.2075,-0.062 0.0825,-0.0143 0.16625,-0.0215 0.25,-0.0215 l 0,-5.65825 c 0,-1.10988 -0.0838,-1.94825 -0.25,-2.51713 -0.16625,-0.56875 -0.47125,-1.08875 -0.915,-1.5605 0,0 -0.007,-0.007 -0.0213,-0.0205 -0.0137,-0.0136 -0.035,-0.0341 -0.0625,-0.063 l 8.2375,0 0,13.2725 c -0.5275,0.166 -1.05375,0.3115 -1.58125,0.437 -0.52625,0.125 -1.05375,0.21488 -1.58125,0.271 -0.8025,0.13813 -1.6,0.24213 -2.39125,0.3115 -0.79,0.0694 -1.56,0.1045 -2.30875,0.1045 -4.3825,0 -8.12,-1.17237 -11.2125,-3.51562 -3.09375,-2.34475 -4.63875,-5.65138 -4.63875,-9.92388 z m -123.293999,-23.625 35.1182,0 0,-95.087594 -35.1182,0 0,95.087594 z m 38.754,6.64013 35.1161,0 0,-95.087794 -35.1161,0 0,95.087794 z m 39.6528,-6.64013 35.116999,0 0,-95.087594 -35.116999,0 0,95.087594 z m 38.301999,6.64013 35.1175,0 0,-95.087794 -35.1175,0 0,95.087794 z m -9.76125,17.9005 5.07625,0 -2.82875,-7.82188 -2.2475,7.82188 z M 58.985061,19.068626 l 5.07524,0 -2.8286,-7.821301 -2.2466,7.821301 z m -37.4189,7.6137 c 0.36038,0.16625 0.707,0.305 1.04,0.4175 0.333,0.11 0.63775,0.165 0.915,0.165 0.99863,0 1.7955,-0.38125 2.39212,-1.14375 0.59676,-0.76375 0.95076,-1.61625 1.06063,-2.55875 l 0,-0.7075 c 0,-1.13625 -0.34625,-2.17 -1.03962,-3.09875 -0.69288,-0.93 -1.77488,-1.39375 -3.24563,-1.39375 -0.0825,0 -0.17237,0.006 -0.2695,0.02 -0.0961,0.015 -0.188,0.0213 -0.271,0.0213 -0.11087,0 -0.21537,0.006 -0.3125,0.02 -0.0966,0.0138 -0.186,0.0213 -0.2695,0.0213 l 0,8.2375 z m 0,-11.9812 c 0.0556,0.0263 0.11813,0.0475 0.187,0.0613 0.0689,0.015 0.1455,0.035 0.2285,0.0625 0.0556,0 0.11863,0.008 0.1875,0.02 0.0694,0.015 0.13188,0.0225 0.1875,0.0225 0.7485,0 1.32425,-0.305 1.72563,-0.91625 0.40275,-0.61 0.6455,-1.27625 0.7295,-1.99625 l 0,-0.22875 0,-0.187501 0,-0.45875 0,-0.1025 0,-0.105 c -0.0563,-0.6375 -0.3267,-1.2211995 -0.812,-1.7461995 -0.4853,-0.5274997 -1.1303,-0.7912497 -1.9341,-0.7912497 l -0.4995,0 0,6.3662502"
       id="path4172" />
  </g>
</svg>
